<?xml version="1.0" ?><svg data-name="Layer 1" id="Layer_1" viewBox="0 0 64 64" xmlns="http://www.w3.org/2000/svg"><title/><desc/><polygon points="32.06 3.02 23.86 23.82 32.06 32.02 32.06 3.02" style="fill:#cff09e"/><polygon points="3.06 32.02 23.86 40.22 32.06 32.02 3.06 32.02" style="fill:#cff09e"/><polygon points="23.86 40.22 32.06 61.02 32.06 32.02 23.86 40.22" style="fill:#cff09e"/><polygon points="32.06 32.02 40.26 40.22 61.06 32.02 32.06 32.02" style="fill:#cff09e"/><polygon points="19.62 25.49 23.86 23.82 15.09 15.05 19.62 25.49" style="fill:#cff09e"/><polygon points="44.5 25.49 49.03 15.05 40.26 23.82 44.5 25.49" style="fill:#cff09e"/><polygon points="23.86 40.22 19.62 38.55 15.09 48.99 25.53 44.45 23.86 40.22" style="fill:#79bd9a"/><polygon points="44.5 38.55 40.26 40.22 38.59 44.45 49.03 48.99 44.5 38.55" style="fill:#79bd9a"/><circle cx="58.06" cy="15.02" r="3" style="fill:#cff09e"/><polygon points="6.65 19.6 8.06 16.02 9.48 19.6 13.06 21.02 9.48 22.43 8.06 26.02 6.65 22.43 3.06 21.02 6.65 19.6" style="fill:#a8dba8"/><path d="M62,32.37a.91.91,0,0,0,0-.7.31.31,0,0,0-.05-.1.86.86,0,0,0-.13-.2.6.6,0,0,0-.08-.08.78.78,0,0,0-.24-.16l-.05,0h0l-15.6-6.15L50,15.45v0s0,0,0-.06a.92.92,0,0,0,.05-.28A.41.41,0,0,0,50,15a1,1,0,0,0-.05-.24l0-.1a.92.92,0,0,0-.5-.5l-.1,0a1,1,0,0,0-.24,0H49a.92.92,0,0,0-.28,0l-.06,0h0l-9.49,4.12L33,2.65h0l0-.06a.87.87,0,0,0-.16-.23.6.6,0,0,0-.08-.08.86.86,0,0,0-.2-.13.31.31,0,0,0-.1-.05.91.91,0,0,0-.7,0l-.1.05a.86.86,0,0,0-.2.13l-.08.08a1.19,1.19,0,0,0-.16.23l0,.06h0L25,18.25l-9.49-4.12h0l-.07,0a.87.87,0,0,0-.28,0H15a1,1,0,0,0-.25,0l-.1,0a1,1,0,0,0-.3.2,1,1,0,0,0-.19.3.3.3,0,0,0,0,.1,1,1,0,0,0-.05.24v.11a.92.92,0,0,0,.05.28s0,0,0,.06v0l4.13,9.49L2.69,31.09h0l-.05,0a.78.78,0,0,0-.24.16.27.27,0,0,0-.07.08.9.9,0,0,0-.14.2l-.05.1a.91.91,0,0,0,0,.7l.05.09a.77.77,0,0,0,.14.21.27.27,0,0,0,.07.08.78.78,0,0,0,.24.16l.05,0h0L18.3,39.1l-4.13,9.49h0s0,0,0,.07a.87.87,0,0,0-.05.28v.1a1,1,0,0,0,.05.25.42.42,0,0,0,0,.1,1,1,0,0,0,.19.3,1,1,0,0,0,.33.21,1,1,0,0,0,.38.08h0a1,1,0,0,0,.38-.08h0L25,45.79l6.15,15.6h0l0,.05a1,1,0,0,0,.16.24.27.27,0,0,0,.08.07.77.77,0,0,0,.21.14l.09.05a.91.91,0,0,0,.7,0l.1-.05a.9.9,0,0,0,.2-.14.27.27,0,0,0,.08-.07.78.78,0,0,0,.16-.24l0-.05h0l6.15-15.6,9.49,4.12h0A1.08,1.08,0,0,0,49,50h0a1,1,0,0,0,.38-.08,1,1,0,0,0,.33-.21,1,1,0,0,0,.2-.3l0-.1a1,1,0,0,0,.05-.25.34.34,0,0,0,0-.1.87.87,0,0,0-.05-.28s0-.05,0-.07h0L45.83,39.1,61.43,33h0l.05,0a.78.78,0,0,0,.24-.16l.08-.08a.74.74,0,0,0,.13-.21A.41.41,0,0,0,62,32.37ZM44.13,37.62h0l-3.62,1.43-6-6H55.8ZM8.32,33H29.65l-6,6L20,37.62h0ZM20,26.42h0L23.62,25l6,6H8.32ZM37.66,20l1.43,3.62-6,6V8.28L37.66,20Zm-6.6,9.65-6-6L26.46,20h0l4.6-11.67Zm-4.6,14.49L25,40.46l6-6V55.76l-4.6-11.67Zm6.6-9.66,6,6-1.43,3.63h0l-4.6,11.67ZM34.48,31l6-6,3.62,1.43h0L55.8,31Zm7.57-7.57,4-4L44,24.2Zm2.56-5.39-4,4-.76-1.92ZM23.49,22l-4-4,4.72,2.05Zm-1.42,1.42-1.91.75L18.1,19.48Zm0,17.14-4,4,2.06-4.72ZM19.52,46l4-4,.75,1.91Zm21.12-4,4,4-4.73-2.06Zm1.41-1.42L44,39.84,46,44.56Z" style="fill:#3b8686"/><path d="M58.06,19a4,4,0,0,0,1-7.86V3a1,1,0,0,0-2,0v8.14a4,4,0,0,0,1,7.86Zm0-6a2,2,0,1,1-2,2A2,2,0,0,1,58.06,13Z" style="fill:#3b8686"/><path d="M40.35,9.73a1,1,0,0,0,.71.29,1,1,0,0,0,.71-.29L42.48,9l.7.71a1,1,0,0,0,1.42,0,1,1,0,0,0,0-1.42l-.71-.71.71-.7a1,1,0,1,0-1.42-1.42l-.7.71-.71-.71A1,1,0,0,0,40.35,6.9l.71.7-.71.71A1,1,0,0,0,40.35,9.73Z" style="fill:#3b8686"/><path d="M9.77,53.48a1,1,0,0,0-1.42,0l-.7.71-.71-.71a1,1,0,0,0-1.41,0,1,1,0,0,0,0,1.42l.7.7-.7.71A1,1,0,0,0,6.23,58a1,1,0,0,0,.71-.29L7.65,57l.7.71a1,1,0,0,0,.71.29,1,1,0,0,0,.71-.29,1,1,0,0,0,0-1.42l-.71-.71.71-.7A1,1,0,0,0,9.77,53.48Z" style="fill:#3b8686"/><path d="M60.06,50h-1V49a1,1,0,0,0-2,0v1h-1a1,1,0,0,0,0,2h1v1a1,1,0,1,0,2,0V52h1a1,1,0,0,0,0-2Z" style="fill:#3b8686"/><path d="M2.69,22,5.88,23.2l1.25,3.19a1,1,0,0,0,1.86,0l1.26-3.19L13.43,22a1,1,0,0,0,0-1.86l-3.18-1.26-1.19-3V3a1,1,0,0,0-2,0V15.83l-1.18,3L2.69,20.09a1,1,0,0,0,0,1.86ZM7,20.54A1,1,0,0,0,7.58,20l.48-1.23L8.55,20a1,1,0,0,0,.56.57l1.23.48-1.23.48a1,1,0,0,0-.56.57l-.49,1.22-.48-1.22A1,1,0,0,0,7,21.5L5.79,21Z" style="fill:#3b8686"/><circle cx="23.06" cy="11.02" r="1" style="fill:#3b8686"/><circle cx="15.06" cy="8.02" r="1" style="fill:#3b8686"/><circle cx="23.06" cy="5.02" r="1" style="fill:#3b8686"/><circle cx="47.06" cy="58.02" r="1" style="fill:#3b8686"/></svg>